<mxfile host="app.diagrams.net" agent="Mozilla/5.0 (Windows NT 10.0; Win64; x64) AppleWebKit/537.36 (KHTML, like Gecko) Chrome/130.0.6723.152 Safari/537.36" version="25.0.3">
  <diagram id="OA1QGn-yJkAsTaFxc65z" name="페이지-1">
    <mxGraphModel dx="2373" dy="629" grid="1" gridSize="10" guides="1" tooltips="1" connect="1" arrows="1" fold="1" page="1" pageScale="1" pageWidth="1169" pageHeight="827" math="0" shadow="0">
      <root>
        <mxCell id="0" />
        <mxCell id="1" parent="0" />
        <mxCell id="gmwJEtU2OgfRtAiCiP6d-1" value="" style="group" parent="1" vertex="1" connectable="0">
          <mxGeometry x="-1144" y="150" width="1120" height="480" as="geometry" />
        </mxCell>
        <mxCell id="2nGjrXfHUsvwI4NKvP4E-1" value="Client" style="outlineConnect=0;gradientColor=none;fontColor=#545B64;strokeColor=none;fillColor=#879196;dashed=0;verticalLabelPosition=bottom;verticalAlign=top;align=center;html=1;fontSize=12;fontStyle=0;aspect=fixed;shape=mxgraph.aws4.illustration_devices;pointerEvents=1" parent="gmwJEtU2OgfRtAiCiP6d-1" vertex="1">
          <mxGeometry x="32.734864300626306" y="84.9922849265171" width="117.66995051845684" height="85.99631466603364" as="geometry" />
        </mxCell>
        <mxCell id="2nGjrXfHUsvwI4NKvP4E-2" value="Client" style="outlineConnect=0;gradientColor=none;fontColor=#545B64;strokeColor=none;fillColor=#879196;dashed=0;verticalLabelPosition=bottom;verticalAlign=top;align=center;html=1;fontSize=12;fontStyle=0;aspect=fixed;shape=mxgraph.aws4.illustration_devices;pointerEvents=1" parent="gmwJEtU2OgfRtAiCiP6d-1" vertex="1">
          <mxGeometry x="32.734864300626306" y="206.40983482154152" width="117.66995051845684" height="85.99631466603364" as="geometry" />
        </mxCell>
        <mxCell id="2nGjrXfHUsvwI4NKvP4E-3" value="Internet (WAN) " style="fillColor=#CCE5FF;strokeColor=none;dashed=0;verticalAlign=top;fontStyle=0;fontColor=#232F3D;shadow=1;rounded=1;" parent="gmwJEtU2OgfRtAiCiP6d-1" vertex="1">
          <mxGeometry x="161.33611691022966" y="70.82285685376776" width="187.05636743215032" height="257.00452786279817" as="geometry" />
        </mxCell>
        <mxCell id="2nGjrXfHUsvwI4NKvP4E-4" value="Generic group" style="fillColor=#f5f5f5;strokeColor=#666666;dashed=0;verticalAlign=top;fontStyle=0;fontColor=#333333;shadow=1;rounded=1;glass=0;sketch=0;" parent="gmwJEtU2OgfRtAiCiP6d-1" vertex="1">
          <mxGeometry x="395.16" width="594.84" height="480" as="geometry" />
        </mxCell>
        <mxCell id="2nGjrXfHUsvwI4NKvP4E-5" value="방화벽" style="image;html=1;image=img/lib/clip_art/networking/Firewall_02_128x128.png" parent="gmwJEtU2OgfRtAiCiP6d-1" vertex="1">
          <mxGeometry x="336.7014613778706" y="144.68115245491114" width="81.83716075156576" height="109.27579490552199" as="geometry" />
        </mxCell>
        <mxCell id="2nGjrXfHUsvwI4NKvP4E-6" value="Load balancer&lt;br&gt;L4" style="outlineConnect=0;dashed=0;verticalLabelPosition=bottom;verticalAlign=top;align=center;html=1;shape=mxgraph.aws3.classic_load_balancer;fillColor=#F58534;gradientColor=none;" parent="gmwJEtU2OgfRtAiCiP6d-1" vertex="1">
          <mxGeometry x="423.21503131524014" y="155.6208737004528" width="80.66805845511483" height="87.42063592441758" as="geometry" />
        </mxCell>
        <mxCell id="2nGjrXfHUsvwI4NKvP4E-7" value="User" style="verticalLabelPosition=bottom;html=1;verticalAlign=top;strokeWidth=1;align=center;outlineConnect=0;dashed=0;outlineConnect=0;shape=mxgraph.aws3d.end_user;strokeColor=none;fillColor=#777777;aspect=fixed;" parent="gmwJEtU2OgfRtAiCiP6d-1" vertex="1">
          <mxGeometry y="230.69334480054647" width="32.68934035635273" height="67.02482249493607" as="geometry" />
        </mxCell>
        <mxCell id="2nGjrXfHUsvwI4NKvP4E-8" value="User" style="verticalLabelPosition=bottom;html=1;verticalAlign=top;strokeWidth=1;align=center;outlineConnect=0;dashed=0;outlineConnect=0;shape=mxgraph.aws3d.end_user;strokeColor=none;fillColor=#777777;aspect=fixed;" parent="gmwJEtU2OgfRtAiCiP6d-1" vertex="1">
          <mxGeometry y="104.72263678445864" width="32.68934035635273" height="67.02482249493607" as="geometry" />
        </mxCell>
        <mxCell id="2nGjrXfHUsvwI4NKvP4E-9" value="" style="fillColor=#CCE5FF;strokeColor=none;dashed=0;verticalAlign=top;fontStyle=0;fontColor=#232F3D;shadow=1;rounded=0;glass=0;sketch=0;" parent="gmwJEtU2OgfRtAiCiP6d-1" vertex="1">
          <mxGeometry x="512.0668058455116" y="43.58890041231378" width="105.21920668058456" height="235.67146434624237" as="geometry" />
        </mxCell>
        <mxCell id="2nGjrXfHUsvwI4NKvP4E-10" value="" style="shape=image;verticalLabelPosition=bottom;labelBackgroundColor=default;verticalAlign=top;aspect=fixed;imageAspect=0;image=https://github.com/kubernetes/community/raw/master/icons/png/resources/labeled/ns-128.png;" parent="gmwJEtU2OgfRtAiCiP6d-1" vertex="1">
          <mxGeometry x="594.6521920668059" y="29.285913034679897" width="55.29168425988805" height="53.563819126766546" as="geometry" />
        </mxCell>
        <mxCell id="2nGjrXfHUsvwI4NKvP4E-11" value="" style="aspect=fixed;html=1;points=[];align=center;image;fontSize=12;image=img/lib/azure2/networking/DNS_Zones.svg;" parent="gmwJEtU2OgfRtAiCiP6d-1" vertex="1">
          <mxGeometry x="173.02713987473908" y="153.5932006172059" width="43.196628328037534" height="43.196628328037534" as="geometry" />
        </mxCell>
        <mxCell id="2nGjrXfHUsvwI4NKvP4E-12" value="Backend Services" style="fillColor=#CCE5FF;strokeColor=none;dashed=0;verticalAlign=top;fontStyle=0;fontColor=#232F3D;shadow=1;rounded=0;glass=0;sketch=0;" parent="gmwJEtU2OgfRtAiCiP6d-1" vertex="1">
          <mxGeometry x="664.0501043841338" y="43.58890041231378" width="233.82045929018793" height="235.67146434624237" as="geometry" />
        </mxCell>
        <mxCell id="2nGjrXfHUsvwI4NKvP4E-13" value="" style="shape=image;verticalLabelPosition=bottom;labelBackgroundColor=default;verticalAlign=top;aspect=fixed;imageAspect=0;image=https://github.com/kubernetes/community/raw/master/icons/png/resources/labeled/ns-128.png;" parent="gmwJEtU2OgfRtAiCiP6d-1" vertex="1">
          <mxGeometry x="862.7974947807934" y="29.285913034679897" width="55.29168425988805" height="53.563819126766546" as="geometry" />
        </mxCell>
        <mxCell id="2nGjrXfHUsvwI4NKvP4E-14" value="" style="sketch=0;html=1;dashed=0;whitespace=wrap;fillColor=#2875E2;strokeColor=#ffffff;points=[[0.005,0.63,0],[0.1,0.2,0],[0.9,0.2,0],[0.5,0,0],[0.995,0.63,0],[0.72,0.99,0],[0.5,1,0],[0.28,0.99,0]];shape=mxgraph.kubernetes.icon;prIcon=pod;rounded=1;glass=0;" parent="gmwJEtU2OgfRtAiCiP6d-1" vertex="1">
          <mxGeometry x="687.4321503131524" y="84.9922849265171" width="70.14613778705638" height="85.59937267599221" as="geometry" />
        </mxCell>
        <mxCell id="2nGjrXfHUsvwI4NKvP4E-15" value="" style="sketch=0;html=1;dashed=0;whitespace=wrap;fillColor=#2875E2;strokeColor=#ffffff;points=[[0.005,0.63,0],[0.1,0.2,0],[0.9,0.2,0],[0.5,0,0],[0.995,0.63,0],[0.72,0.99,0],[0.5,1,0],[0.28,0.99,0]];shape=mxgraph.kubernetes.icon;prIcon=pod;rounded=1;glass=0;" parent="gmwJEtU2OgfRtAiCiP6d-1" vertex="1">
          <mxGeometry x="687.4321503131524" y="165.61353805681333" width="70.14613778705638" height="85.59937267599221" as="geometry" />
        </mxCell>
        <mxCell id="2nGjrXfHUsvwI4NKvP4E-16" value="" style="sketch=0;html=1;dashed=0;whitespace=wrap;fillColor=#2875E2;strokeColor=#ffffff;points=[[0.005,0.63,0],[0.1,0.2,0],[0.9,0.2,0],[0.5,0,0],[0.995,0.63,0],[0.72,0.99,0],[0.5,1,0],[0.28,0.99,0]];shape=mxgraph.kubernetes.icon;prIcon=pod;rounded=1;glass=0;" parent="gmwJEtU2OgfRtAiCiP6d-1" vertex="1">
          <mxGeometry x="780.9603340292276" y="165.61353805681333" width="70.14613778705638" height="85.59937267599221" as="geometry" />
        </mxCell>
        <mxCell id="2nGjrXfHUsvwI4NKvP4E-17" value="" style="sketch=0;html=1;dashed=0;whitespace=wrap;fillColor=#2875E2;strokeColor=#ffffff;points=[[0.005,0.63,0],[0.1,0.2,0],[0.9,0.2,0],[0.5,0,0],[0.995,0.63,0],[0.72,0.99,0],[0.5,1,0],[0.28,0.99,0]];shape=mxgraph.kubernetes.icon;prIcon=pod;rounded=1;glass=0;" parent="gmwJEtU2OgfRtAiCiP6d-1" vertex="1">
          <mxGeometry x="780.9603340292276" y="84.99228492651713" width="70.14613778705638" height="85.59937267599221" as="geometry" />
        </mxCell>
        <mxCell id="2nGjrXfHUsvwI4NKvP4E-18" value="" style="shape=image;verticalLabelPosition=bottom;labelBackgroundColor=default;verticalAlign=top;aspect=fixed;imageAspect=0;image=data:image/png,iVBORw0KGgoAAAANSUhEUgAAAIAAAAB8CAYAAAChbripAAAABmJLR0QA/wD/AP+gvaeTAAAZN0lEQVR4nO2deXhU5fXHv+fOPpnJOkmAhE2WEPawQwDlJxZbhVYFQWxtrWuVWkTcoNW6VG1tFUUfW61rXXCpW21pZRFZBESWAIEQCFtI2LKRSTL7Pb8/7tzJzWSdZO5MEufzPD7yvnc7mffc933vOec9L/A9gpmJmS9l5teZuYCZ65j5LDPvZeYnmXlktGWMoQLMLDDzbGbewa2zmZlnR1vmGGGAmXXMfAMzH2xDwwezk5nnMTNF++9Qk275xzGzGcDNAJYC6B102HnqvHf3pnyn9+hpnyHeLHh6pwreS0ebkq1mYRgAIej8PABPAviQiET1pY8s3UoBmDkBwJ0AfgMgrcExoGLNLse+P35QPaqq1pfY1PV90zXFj/w0+fiIfroJAAxBhwsB/BHA20TkVkH8qNAtFICZbQAWAbgLQJLymMgoW7fHkf/4exdyahxifFvulxIvlN07NyF/5mhTDhGCrzkDYAWAlURUFw75o0mXVgBmTgdwN4BfAzArj/lEnPpoU83R5z6zj3d52NSe+yfECfb75iXsnTXWNJSCFAtAGYAXATxHRJXtuX9noEsqADP3B7AYwK0AjMpjbh9OvrXGXvryavs4nwhtOJ4XZ6DaO2dbd86bZhksCOgRdNgO4HUATxHR6XA8L5J0KQVg5hEA7gVwHdCwcZ1uPvTqmpqyN760TxJFaNR4vk5L7p/NtOy49XJrhk6DfkGHXQDeBPA4ERWr8Xw16BIKwMw5AB4EMBdBMtvrxH3PfFLt/Nf2unHMkfl7BIJ47XTL9rt+bE0z6GhA0GE3gPcB/IGIDkVCno7QqRWAmacCuB/AlcHHqmrF/MfercKGvc5hkZdMQiCIV04071w6N8EcZ6BgOUQA/wHweyLaGQXx2kSnUwC/4eVKAMsATAo6LJ6p8u186M1Ky84j7uzIS9c8U7KN+5YvTHD2SNSMb+LwWgAPEdHWSMvVGp1GAZhZAHAFgN8DGBN02FN02vvt8jcrex4u8VwUceFCYHK2Yd9vFyY6eyRqxqHx77sFwB+J6F9REK1Joq4AzKwHsADAcgCDgw67Cku8ux94vaLvibPenpGXrv0M76cvfGhh4vkBPbWTgEaT0j0AnoVkVIqqdTFqCsDMcag312Y2PIbanUdcO3/3VtWQc1W+tCZv0EXok6YpXr4g8di4QYaJaGxd3A/gaQDvEpE38tJFQQGYOR7AjQAeABp+U4vMFev2OPc9uap61IW6ps21XZWMFE3pQ9cnHhk3yDAOQUYrAMchWRf/RkTOSMoVMQVg5lTU2+kbNK7IOP/lLkfhE6uqcmqdHPzjdCuSrUL5ffMS9s8cbRpNhISgw2cB/BXAM0RUHQl5VFcAZu4LYAmk7j7YXFv80aaaYys+t09wu9nY5A26KXEGqrlztnXXvOmWIQIheJiTzczPE1GFmnKopgDMPACSc+Y2BI19Ljcf+fuamrNvfmmfGC5zbVfFbBBqF8227Jw3zTJIEBA80a0B8BqkL4dSNZ4fdgXwh1UtBbAQQbNfp5sLXlldU/3WOvt4MUJWu66CbGa+5XJLL72G+gcddgH4AMCjRHQknM8NWyMwcy6kid0VwfeVzbWfb6trykgSQ4FsXbx3boLFbKBgY5cHwCoATxLRwXA8r8MK0JK59vwFb97D/7ig3X7IFTVzbVeFCDx7ovm7JVfFm6xmYXjQYdnM/CgR7ejQc9p7ITMPBfASgOlBh3zFZd4ty9+osuWfcA/tiHAxJGaMMu1/YH6CaLMKwVHLDOAdAPcQ0bn23LtdCsDMcyCNScrJnbvglGfrb9+o7HPsrDd4DIsRBsYO0hc+dF1ibWaqdjQatt0ZAJcS0YFQ7xmyAjDzdABrAOjlupJy37bbV5b3KS339gr1fjFCZ9RF+oKVd6T4gjyQ5wDkhPq1EJICMLMJUpTsILnqrXW1m5779ELwMBBDZQSC+NqSlC0j+hmmKao/JqJrQrpPiM+dj/rGx+dbHRtjjR8dRIZw4zPlU0+e8ypdzFczc0gT7lAVYIH8j1oX5z+2qnJqiNfHCCPMoJtWlA1mQGktXBjKPdqsAH63beBtf/Fze7VasXcx2k6FXUzZXuDap6iaGcr1ofQAYwDI4dV1n26tHR3Kg2Kox6v/rVH6EnL8K6PaRCgKEOjuK2vEQ+2NtY8RfvYcdWUxQ/Ye6gC02eIaigJMCTywyH0hhOtiqIzIEMqrxcOKqty2XhuKAkyW/7Fuj8MawnUxIsCuIneNohheBWDmgaiP3hE3H3QNaun8GJFnzS6HMrhkij/ItlXa2gMENMrl5iJ7bdsWWcaIHNsKXIMAyHGFiQDaFDYfsgIUlnq73Pq37wN1LjHO4WJlrECbhoG2KkBgArhhryP27d9JOVjsVnoEw6MAzNygO1mf5+gTumgxIsFXe106RTFsPcAU+TyRce7kOV9wypUYnYT1exzKVVMDmDl4KXsj2qIAAU0qKfMebY9gMSLDmUpfuk9kpTt4crMn+2lLRG5AAbYXuFztESyaxJsFWM0ErUAwGyTvt0FPMGgbesIdbobHywAAu4MhioyqWhF1Lo64zB2h+LzveL90rRyXkQvgk5bOb1EBmLmBWXHNHpetwxK2C4IU/VSP2UDItGnRK0WDjBQtMmwa9EjSIDFOQILiP6GDUY8eH+NCrYgLtZJCVNb4cKbCh5Jy/39lXpRW+OD2dA5F2XLA5e2XHmjWVucBrfUAOahfzOHIOxohA1BQe6cmCBjaR4fs3jpk99Ehu7ceKfGherLbh05DsMVrYGvB8sEMlJb7cLDYjYPFHhw86cHBYg+q6yK/7nPNLkeP62fEycWxzGxuKZlVawoQ+PyrqhULPV4eFQYZW0WvIYwZqMe04UZMHWZApq1zrx0hAjJsGmTYTJiZI/nImIHCEg825Tuxab8LB064IUagk8g/6R7IjGp/djMdgLEANjV3fmu/bKALyTvmUT0T1oCeWiy8xIJZ40ww6bv2uhEiICtTh6xMHW6eZUWFXcSnW+vw/te1KKv2NTWqhQVRhFBhF4+kxAtyjoVcdEABFA4gZ1xLJ7YH+Tfo30OLu69KwJRsA6hrt3uzJFsF/PIHFvzs0jj8Z4cDKz+rRmWNOkPEriKX/bKcgLe+xXlAswOpPxVbhlzcvN8xMDziKZ4BIHeYEe/el4rcod238ZXoNIQfTzJj1YOp6N9DnaFt7W6ncsaS25JjqKWZVL0DyMNFF2rF4ESJYWHZ/ATodd+Dlg/CFq/Botnq+NS+yXdmod4xlAQgq7lzW1KAwASw6LR6DqA9Rd0m7W7I7Fbpb69zs9nh4iJFVbPDQJt6gA37nKq9oo+8U4V/bqkFd47P6Ijg9jCe/aQab6+vaf3kdlJQ7D6rKE5p7rwmByF/GpdAfPn6PQ7V7P9ekfHEqgv4aFMdrv+/OMwaa4JO0z2HhBqHiI+/qcOqr2txttIHjQD4VDIVbNjr0uYMDKzca7YHaPKXZuZZAP4LSNm2x99VqpoF8NXFNjz3WTX2HpO6Q1u8BpePM2HacANGX6SHtosrg8PN2F7gwqb9Tny5y4E6F0MgYMYoI34wxoT7X1Pn6zrDpj3z+cNpsjOIAfRoagFpc9PQgMacrvAWAVBNAYb01uH1JTbkHXPjnfU1+GqvE2+vr8Hb62tgMQmYNMSAMQP1yO6tw+AMHYyd3D5QXSeioFiyBO4odGHnYTfcfh+DUU+YOy0O18+IQ59ULfKOqTf/KSnz9hBFlAoCekF60ScD+Cz4vFYV4NsCj0MdERsyqr8eo25KxrkqHzbnS2/Mt4UurN3twNrdkgiCAPRP1yK7tx590jTIsGmR4fcFJFsjYxoGAJGB81WyP8CLknIfjp3x4mCxGyVlvgbnJloEzMw2YtpwIyZnG2A1RU7O4jLvib5pDRxDrSsAM2sATJDLa3bXRdQBlJaowdW5Zlyda4bbw9hV5Mb+E+6Afb3otBdFpxun1DPpCT2SNUiIEySHkFlyBiVZBViMAvRaBHqPOKMAQQC0AuD1j8FeL8Phlt7UWhfD62NcqJUcQVW1ot8hJKKyRsTZSl/grVYiENAvXYvs3joM6a3DyP56DO+rhxC5Nm/AN/kuT9+0lh1DTfUAowBY/P927SlyRy0CWK8jTBpiwKQh9WkIKuwiCks8OHXe2+ANLCmT3sJIkGwVkJGiQ4ZNg8wULXrZNOiTqkVWpi7gcu4MrNnjSL+uoWPIGJyHsCkFCGiKvY4Pubyday+9ZKs0L8CQ4KSb0oRLflOrakRU+v/tcDFqnSJElmbdtU7ptXd5GAIRdP5fId4svapaDcGkJ1hMhESLgKQgF7Ne23kauSX2HXcPZEYNESyQknmMhZSvOECLCpB31NWltkIx6QkmvRQXEAMQRWgqasXDKRYhx1+ViyAFaGp0ChgN1uU5Y+v/uji7j7iUGUcbzQMaKAAz90H9Pnu8Od8ZvBtGjC7G2t1O5TK+KcEbYQb3AAENcfv4WIVdTFFTuBjq802+czAA+dvUhqCU/MEKUO8AKvWWqCtajEhQ62KL0928Y6jZHmDTfvUcQDEiS2GJ+4yi2MAxFFAAZrYAGCGX1+12ZCBGt+CrPJfya6/ZHmAS/J+FDJQXnfH2U1+0GJFgfZ6zr6KY5d+7AUBDBQhoxtkKb1Gk9uCLoT6nyrwZogg5qIeg2I1NqQCBsWFHoafLb4ocoyGnyrzHFcXAyy4AgS3bJsqV/9vtSI6YZDEiwjcFLqXvuaECQJr8ySlGXDsPx1LAdDfW7nIoU8mNZ2YDUK8ACgeQeNgdwRRwdkdUt82LKvbA0jH1AyL3HnMPYkatv2iAf3PORgqw/4S7XHVpFDz1wYUmfevdnQq7iOc/k8306s+3fSK0VbVioaIqF2hCAdbvdTX2s6rIhr1O3PDnMuwo7HIrz9uFTwRWf+fAgqfONxnYoiZ7jjZ2DGmZuReAwHfipv3OiO/Ne7jEg9tXliMrU4frZ1gwM8cIQzdbLFJdJ+KzrVJE8JlKX1T2bF2322mZMTIwuk9lZiJmvhbSfvfw+HB80uLSfpEXrSFGPWHCYAOmDTcid5gB6Yld079/9IwXm/Od2LzfiT1H3fCJqq0JbRNxRrJvfLqnGfW7uQ3WQrEA9ORZ7ykA/aIgWwOcHmDjfic27peilzJsGmT31ivyA+gC0TudhbNVvkA0sBS/6EZ5deMJbjRnO7VOtrrcfNigJ/krb4oWiu//ghJPVDYwbkTQMqHSMh9KyuqjgwEp2jZDkR0kM0WLtEQNkqxCIEtIuOLz7A4pGFQONyv1Zwc5VeZFqf//jVPJdM4hrMwulmekaGQFmKgFEFj1W1ru7ZR9bVNvTZU/7i//hKfZ6/RaQkKcgHgzBeL4rGYBBECrpUAOglqnCFGUIoTr/PGCDjejuk6KCBZD+lJlRLejb5kKu+jOSAk0c18tgEDEiM2q9TV5VWekDb+v28s4f0HE+QvtbIx2tWPnfPNlkqyCMpdgkgAg8N0/eqBO1/iSrk4H3sTO+RJ3iLREIV1RLBUAbJdL/dK12UZ98wmFYnRtRvbTH9JrSPmZv0cA8LFcIiD5vrmJ30ZetBiR4PFfJFYFVa0SIG1GfEiumTPJOH5Qpq4IMboV86fFbctI0U5UVL1DREcEIvIBuBnSztQgori3ltrIahJi28J0EwZn6o7dOy9BuQH1OQBLAL8vgIg2A1gqH9Vr6KKPlqcdEQR0na+CGE0SZyT7G0ts7F8eBki5g+bLuQIC5jQieh7Aq3LZliCM/dMvk5rNLxej8yMQxA+XpxUYdA0mfncT0YbAOUHXLAIQmATOGGW6+LoZlq2I0SV55taUjemJGuUWcv8goheU5zRQAP/S4Z8AkFOO0z1XxY/M7qNTbkkWowtwTa5p+7ThhosVVbsA3BZ8XiOPChGdBjAXgEsqI+7Ne1JNSVaqCD43RudkcIb26IPzk4ai3ix5FsCPiahRtpcmXWpEtBXAYrmsEZD5/gPpx2OTws5PgllT9da9aRqigInfA+BaIjrV1PnN+lSJ6K8AXpbLKfHCmGdvSd4cVmljhBWBIL6/zHZEp4FyIciviWhjs9e0cs9FUGSanjrcOP2nMyzfdFDOGCrx/K+SN6UmaMYpqt4gor+1dE2LCkBEHgDXApC7D7r76vicnAH6gx0TNUa4WXCxZdPkbON0RdVWALe3dl2rYTVEdAbAPPgnhQBMf7srJT7ZKkQ0ejhG8wzvpy+8d278GNRP+s4AmEdErUbatimuioi2AbhVLmsEyvhgWdoJjYDOEUH0PSYhTqj8++IUEwA5HZgHUuO3Kb9DmwPriOgtAC/K5SSLMOaFXyVvaeGSGCqjEeD952/TTug0pMzlfIfftN8mQo2svBvABrkwYYjx4lt/aI2Zi6PEXxelbkmyCKMVVS8Q0d9DuUdICuCfFM4FcEyuu+1H1vHjBukPhHKfGB3nF5dZtowZpFNa+r4BcE+o9wk5tpqIygFcA0COHDK+tMiWmBIvlIV6rxjtY2R/fcGv58TnKKqKAVxFRCFnn25XcD0R7YbCriwI6PXP5WmnddrQBQg3WZk67FzZC4/8NBEX9dBixW3J2PCnHtjyl5545Tc2jB3UcOXbyP567FzZC3++ufkV8Z8+lIZtK3p2irUItnjh/KuLbfGo38/RCeCaplLBt4V2/0VE9DaAFXLZahZGvHRn8rb23i/cZNq0eH2JDXod4d2varH6OweG9dXhpUUpmD7cGDhv7zE3TpzzYupwAxLiGv8co/rr0TtVi437XFHZCFKJViN43l+WJqeAl7mTiHa0954dVemlAP4nF3IGGqb/6srOMSkcPUCPjzbX4Y4XyvHyajsef68KN6+QRqnfLUxssFHVF9vroNMQZo1tvCr+yonmwDnR5pXfJG1NjBOUm3c+S0SvdeSeHVIAfzjZQgCBXcVvnmWdlDvUuLcj9w0HdoeIV/9nb1B34KQH//3OgWSrgGnD6oeCf+9wQGTgygnmBufrdYTLxhhRYRex5UCDJNsR55c/sG4Z2d+gtPStB3BfR+/b4UGNiCoAXA0Ekg/oVtye3KNHsuZMC5epzqFTniZ3/t5VJBnHsjLrl0CcrfRhR6ELw/rqoNh4GZeMMMJqErD6uzrV9vZpCxOyjPvvnG1V2vhPAFhARB02xIVlVkNEeQBugH8phUBIW3V/aplB27opUi2aWpiprLcE7dwhd/GzJ9b3AvXdf0Q2TWmS1ETNuRfvSE6BlNUDAByQJn3nw3H/sE1riehjAH+Wy1azMPyNpbZ2T046SnO7i8v1NUGpadbnOVHnYvxwvAkCSedNHmJAYYkHhSXNrz9UE61G8Lz/QOoZQUBPRfVNRLQzXM8I93fNAwBWy4XBGbqpd82Jb9YXrSbN7d4x1r+V2qFTDRvV6Was3e1AeqIG4wcb8KPxZghCdN/+1xanbEuIE5QbdjxNRO+F8xlhVQAiEgFcD+CIXPfzyyyTpw835oXzOW3BahJw0yxrg7qhfXSYNdaECruITfmNR6d/+YeBKyaYceUEkz+dS3Rm/3f9JH7jsH66aYqqtQCWhfs5Yd+9mIgqmXkOgG2AtIf9X25N7jXn4XOnT1d6e7ZyedjYXeTG3KlmDOurQ95RN1ITNbh8rAkE4LF3q+D2NJ4g7i5yo6Tch1ljjdBqCBv3O1Fhj/zsb1KWYd/PL7UoV/EcB3BdOCZ9wahi2iKigwB+jvpJYeqHy1MvGHSNgxLVoqTMixufKYPTzVhwcRwuH2vCgZMe3P5CeSDzSDDMwL+/rQtsVhmNb//0BO3ZlXckp6F+0lcDYA4RqWJqV3UxOzM/DmC5XC4q9W659slzLe5n31GyMnV49/5UfLG9Dg+/HbwWsnOj15Nz7RM9iuIMJG/by5A+9z5Q65lqG7cfAvCFXBjQS5u79OroTAq7Aq8tTt2haHwAeFLNxgdUVgD/pHAhgIC7+LoZlikzRhr3qPncrsjSa+K/zu6tVU76voT0AqmK6u4tIrJDshTKq421T9+S3KdPmqZY7Wd3FSYPNe697hLLZEXVYUgLOFVfhxGxhDb+L4NP4Fc6p5sPXfrgmd5ON5tbvrJ7k5GiKf304XS9QIENumsATCKi/Eg8P2IObiL6HMBjctmop6x/LE39Xg8Fej0533swrUrR+Azgxkg1PhBBBfDzCICP5MJFPbVTHpyf8HWEZeg0vLHE9l2cgYYqqh4loo+avUAFIqoARMQAbgQQ0PC5U+Om/nC8+btIytEZWLYgaUNWhm6qoupzAI9GWo6IxzgRUQ2kSaH8ka557IbEi/qlaU9GWpZoMXOMadc1uSZl4xcA+Jn/qymiRCXIjYgKAcyHf0dLApI/XJ6m/T4owfThxrynfpGUhXozvB2Se7e6hctUI6ppLZl5GYA/BMpAxSur7QdeXm3P7W67lhl05HjixqTtl4wwTgGg91eLkNbtf9HCpaoSbQUgSKnq5ynrfSKX7ix0H95x2K09Ve41imLXVAajnnz90zTOycOMNLiXbgRRYF8mmd8R0eNREc5P1H9YZtYD+BDAnGjLEmH+QkRLWz9NXaIe6O5fzHAtgCfgz1XYzakAcEtnaHygE/QASph5IKTYwisA9AeQFF2JwgJDWq5dCCkt77tquXbbw/8DGxUPGst4L6sAAAAASUVORK5CYII=;" parent="gmwJEtU2OgfRtAiCiP6d-1" vertex="1">
          <mxGeometry x="874.4885177453027" y="145.7010598740293" width="60.25345913540586" height="58.37382206491559" as="geometry" />
        </mxCell>
        <mxCell id="2nGjrXfHUsvwI4NKvP4E-19" value="Utiltiy Services" style="fillColor=#CCE5FF;strokeColor=none;dashed=0;verticalAlign=top;fontStyle=0;fontColor=#232F3D;shadow=1;rounded=0;glass=0;sketch=0;" parent="gmwJEtU2OgfRtAiCiP6d-1" vertex="1">
          <mxGeometry x="512.0668058455116" y="300.39916019528" width="385.8037578288101" height="138.53742443022287" as="geometry" />
        </mxCell>
        <mxCell id="2nGjrXfHUsvwI4NKvP4E-20" value="prometheus" style="shape=image;verticalLabelPosition=bottom;labelBackgroundColor=default;verticalAlign=top;aspect=fixed;imageAspect=0;image=data:image/png,iVBORw0KGgoAAAANSUhEUgAAAIUAAACECAMAAACJWBirAAAAb1BMVEX////mUizmUCnmTiblTCLoY0bmVzb53trlRxjkPQDlSh787+3lRRT98vD99fT++vnrfmjukYH76OX0vrX2y8TkNwD41c/xqp7lQgvpa1D30MrysqfshXH1xLzqdl7sinfvnI3wo5XnXj/pcFfjLACqqm6tAAAIVUlEQVR4nL1c64KyIBBNQAUiK03TtDLd93/Gz1umJsNY9p1f2y7SYZg7uJvNF/B8363h+7v9N/N8+u1ukB9su3AsQighluMU9i0PIt/7XxTc9J6wMOaM1LBq1D9QxmMhk/vZ/zmDbXBUoWLU0oEyFcZZ8EMm2+uNckm0DHpIRcvrb4i4R0cwM4MOTDh3d3UO1zLESGEAIsMyWJPCPnCUVgxUadlRJYO1jGZ/tWO9GHhydgCBxPY68nBLAWyFSDeB0v+54iGS6GsO23uoN8uKxGWzsaABFag4fGkvgcOhL1DnasNCmEQFSb/Zlv09BO2CJdUgXxhZVNty2H1K4sRAQVSaWXuELYJFJQ5x+ozEGbCMVhRZM868I4044vwDDt7duMZueRbSm6nb4ui/LUD7a1ZH21lzw771kM5CW3GZOWTIYzv2MmGhFw2zFilHZPIBNXjaDvaK0fdSW+9LKV9AI4oRJCx+6YaPtoTSE/AMwZtKBHuJnsVzl/148DXUT0GNipEOLGI4pefb7oH94aVEcbq5gSpFcJviU2A7hrlez2IT9MKg5WZD4EWQGJH9bBVAgh6Tl/T5K3XoXUtYfcMfSKLZNBMJr5TABJVZPHoa/PXUUz+bwGJiYTHblPocY/D5QzXiaREDFlGnCjwYCkYLeYBJnEESFikqd+m0W0btwXNJ8zvi1N60MJu5OEMkXENkapz2qRWGzAYPBo0A5L3+OYP2tEN80TCo4NmGZbSho2xGqcfgSb/x26KZ+2yMQJUgi+08hQq56Xla70i3cHEdPpqxekOaqU+Y6Ma1qnEyLoI1z+4atyZHZn8Vz79uPAfj9caLGMAcwmTeDLzXC7dHMq2zT97p3AFTwnWCe8PDvJ+8DQJpJXN6Gz9d+W3RpfwnVA6o8jkSPiJz6wJYnfCqibGduRV2udTOxkXDuToFYWDE6caGra8e4spp0UsVlX01jnaCCGFfvXHalBQTL+yylwPxcAnxTK6RIFSKP9d/lJ2evrAjgz3CCYO+CeOCcTXJM4k+K/EWni31yl88XF7+Zq0Y63p5y6soNlMUQ21L4Xj0XFY5rg0wBmKFfV5wCt99zo0P0oZ9gslcp+HkjohA7OV0LzPqfefDhZ1QCspGTsfH7KNK+/HRjKk/+OgjThhD+eG2MYQLvNQZfYR7Kz2LYWDGxB9TgnQtx59RZkLI64EIoRWW0gXB5yTZ+DMmzagE/NpbjJPRxcAXi3z82UUpxrPYrUARwmOTpb7BTye/uGFovBIElLPQZiVPbKdRAbclz3SgDspmKGMpM/XpplS6mzfvhmO8N13eiPFQ9S7pYsEWY1NvMdSMPU4xSCvkCJOgYQv+IY4YB2DxVuFQWhR+0L594Fi07hPuN3T4W06iSZLNYK3PxeSqRH3A4ooyVUvUY7eYIDIqjbEwV1kNwjqDjTAbQkvjd77jgkq42ur2hBnLbsbvfEeEY9HkLahE4JeyaFwRKmsn79muGUjtZHXXA+dbwg9Y4Cy1zWcPqDzg74PT/By1vrYeKFEsxAdHcBnuEJgmlakWqDLqg2jmGdqvTxB7V2W+OMLLIzsuv+hySdxQK14czrCnN0tYzLdeAHi4XsoyFqRYeBaJjCIdC61eTBI2tTDPmTZEiM5iSN371AouK0LBX0XCwuA+cN+EMiXCItOst7ERnb+Qp83ukh9sFXcXL0Y1pQn7ro1MZCycJDtHu73uELrxFzrf0rWptm5wdxjn1Si14HJJVX8TqSR1svR5cUkXsBonoI0jA6ftX883FYppR00PV4jQytLLoKrc67a+qfq0NRGfdDS31yN4oDDA/p6fpialjbCsLlUDXRZA3o90sP5zbpy2idgEB71dizUv9+irnqbUcbUujjgfX5p4hz50N01LIAfn+WokgA79X7PxgL8Xa11AA06hiGxGAF3Gj5LeOeT6RLhrz2iNpEKMtU0YUKu/a5+7UM3O1riMt4cON2XbA9pBOR91VrjEegdEQazOv96hLFWaumpmgEfF/fEEfGFCTHt3SwGnO/2pyg4+n1cf3rTq4ELXACv97xXP0Dnn9jeAr4UOjkhMrUb6DeCpB3WOi79JuzaGR5G4KvEHGB3gXQ3XLr4BODMfGuAWLFYJ+wYgDT46aIBaKcbTABhHQOn4cTQUuqTJDIdEX7CQkygFhPffsXib2QUSgJ+xmN4YqI9D/zuLmUDpam3qZyzez+qBq0G/YsHnbG+vO8P7EYs+vRlDl3/+iEWsyVvs+fG/YfG6zDGBP+9tf8PiT1vqpBoP6nyD+SmhZp3mTHP9mDp3P6mHB+eIq4FIsPTE3JdaAaEhoTZcM7VQ22OawtzBzeD3cxIXAziDVIjjL/D6cdMVNAO8rSpLRNHpJQANgnvtAaq/Ka5D5DtAdoQ6rYEudFCO7MzsABqTTHEeQBZLLXR7yC+0m0Iss2J4idZKGJ5ERcPW0uDmEj7QqgUjixpl+1LfBTXcVdrstLdKVLK0dantvxgPu286OYr78r6Q9kUvBSvoQ7MfZPGZV4NIaBal7h+QoLHpqpUGu4NmRnXTKZl308ShODGpkx6pnPcc0plv1J+KeU/B5OObVqGbzGccRNze33qIDprBsfNt1zTQvBFMBTtHAw8WnR3Nm6ycftslrODlZF7MRDGnzNPgGqR5WTDN+0hSHj/XiCHcLNZYC6FcxSKOubaiig/rvU/uHgVfnpESKbJ132nf5oVY1oKjsZOv/37/9mozjiVCubSDdfThDe65CJXxviRh6q84r//vBQbYplkhYqbJswlhcVhk5x9JYUTEDTLboUpxyTrbIJTKylqoY2ep+x8oPLFzT8HjmJV2UZFw7PJwfASnzwn8AwBufKzJHmHeAAAAAElFTkSuQmCC;" parent="gmwJEtU2OgfRtAiCiP6d-1" vertex="1">
          <mxGeometry x="678.079331941545" y="359.3959476892723" width="51.75423064275416" height="51.36896341712571" as="geometry" />
        </mxCell>
        <mxCell id="2nGjrXfHUsvwI4NKvP4E-21" value="grafana" style="shape=image;verticalLabelPosition=bottom;labelBackgroundColor=default;verticalAlign=top;aspect=fixed;imageAspect=0;image=data:image/jpeg,/9j/4AAQSkZJRgABAQAAAQABAAD/2wCEAAkGBwgHBgkIBwgKCgkLDRYPDQwMDRsUFRAWIB0iIiAdHx8kKDQsJCYxJx8fLT0tMTU3Ojo6Iys/RD84QzQ5OjcBCgoKDQwNGg8PGjclHyU3Nzc3Nzc3Nzc3Nzc3Nzc3Nzc3Nzc3Nzc3Nzc3Nzc3Nzc3Nzc3Nzc3Nzc3Nzc3Nzc3N//AABEIAH0AfQMBEQACEQEDEQH/xAAbAAACAgMBAAAAAAAAAAAAAAAABgUHAQMEAv/EADwQAAEDAwEFBgMGAwkBAAAAAAEAAgMEBRESBiExQVETImFxgZEyocEjQlJisdEV4fAUMzRTcoSi0vEk/8QAGwEBAAMBAQEBAAAAAAAAAAAAAAQFBgMBAgf/xAA1EQACAQMCAwQJAwQDAAAAAAAAAQIDBBEFIRIxQRNRYaEiMnGBkbHR8PEUUuEGIyTBFTNC/9oADAMBAAIRAxEAPwC8UAIAQAgBACAEBC7TX6Oy0ow0SVUueyYeHmfAKNc3Cox8WTrGyldT7ormyu4b5c4q81oq3umce9qPdcOhHDCplcVVPjzuaeVjQlT7Lh28/wAlkbPXqG80XbMGiVndljz8J/Yq7t68a0Moyt5aStanC+T5Mll3IgIAQAgBACAEAIAQAgBACA01FTDTRmSolZEwcXyODQPUr5lJRWWfUYSm8RWWVLfbg+53WoqnHLS7TGOjBw/f1Kz9eo6lRyNpZ0Fb0Yw+PtOBcSSSuzV1/hF0ZO/V2D2lkobzHL2KkW1bsqnE+XUh39r+po8K5rkWFR7T2asIEddGxx4NlzGf+WFcQuqM+UjM1dOuqfOHw3+RJT1dPTQmaomjiiG/W9wA912lOMVlvYiwpznLhisshZdsrJG4gVL344lkTiP0UV39BPGfJk+Ok3bWeHHvROwysniZLE4Oje0Oa4cCDwKlpprKK6UXFuL5o9r08BACAEAtXfbGit9RJTxRS1E0btLgO60Hpk/soVa+hTbilllpbaTWrRU20kyEk2+rCT2dDAwfmkLvoFFepT6RLBaHTXOb+Bsh2/nDh/aLfG5vMxykH2IXq1J9YnzLQ449GfkZuu3TnxBlrhcx7h3pJgO6egA4+a9q6hlYpr4nzb6LiWazyu5CjV1dRWzGarmfNIebznHl09FXTnKbzJ5LulSp0o8NNYRpXydAQAgBAZL3ljWF7ixvwtJ3N8hyTPQ84Um3jdmEPS0Nh53TbN0wecmMuj9ATj5K9sZZoLwz8zI6rBQupY64ZPqWVwIAQGDwQFR7SMLL/cGn/Ocfff8AVZ65WK0vabWxebam/AjVwJQIAQGWtc9wYxpc5xwGtGST0ATGeQbSWWMls2LuNWA+qLaRh5OGp59Bw9SptKwqy3lsVNfWKFPaHpP4IYKbYW2Rj7eSpmPPL9I+SmR0+kubbK2es3D9VJHWNjbFjfSPP+4k/wCy+/0FDu82cv8Alrv93kvoctTsNa5GnsH1ELuRD9X6r4lp9Jr0co6Q1m4i/SSfux8heuexdxpA6SlLauMcmDS/2PH0Kh1bCpDeO5Z2+sUKm0/RfkLbmuY8se0tc04c1wwR6KE9tmWqaayh32CvcLIhaZgI3hxdE/k/JyQfFWlhcJLsn7jP6xaS4v1Ed118P4HdWhQggBACArTb+jNPfO3AwypjDh4ubuPy0+6pL+HDWz3mq0erx2/D+1/Pf6/AW1CLUEBtpaaasqY6enYXyyHDWhfUYuclGPNnxUqRpQc5vZFnbO7O01niDyBLVuHfmI4eDegV5b20aKzzZkr2/qXMsco931JwblKIAIAQAgAoCGv2z1HeIi6QdnUgdyZo3jwPUKNXtoVlvz7ybZ31W1e28e4rS4UVVaa4w1H2c0Z1Me07j0c0+ipKlOVKfC+Zq6Nanc0+KO6fP6Ms3Zi6i72tkziO3YdEwH4hz9eKvLat21PL59TJ31r+mrOPR7ol1IIYIAQEHtbaRdLU/GkTQZkjcfAbx6hRbyj2tPbmifp1y7eum+T2ZVwas8pGvyZ0L3iGR/2Ds7aejNwlaO2nGI8/dZ/Pj7K50+hiHaPm/kZrV7p1KnYx5Ln7f4G1WJTAUBG3W+UFqGKqb7TGREzvPPp+64VrmnS9Z7kq3s61x6i27+gt1G3gDv8A5reXN5GSXT8gD+qgS1T9sfiWkNDf/ufwX4MQ7eO1Dt7cA3rHNk+xC8jqn7o+Z7LQ/wBs/Im7ZtTbLgWxtlMMp3CObDSfI8D7qZRvaNV4zh+JX19NuKKy1leBNg5ClkAitpLNHeaF0Zw2dnehf0PTyKj3NBVoY69CZZXcrarxdHzE7YmpkoL6+imBYJwY3NPJ7c4+o9VV2M3TrcEuvzRd6tTjWtlUj039zLHV4ZgEAICE2vqTTWGp0nDpcRD14/LKh30+ChLx2J2m0+O5j4b/AAK00rO5NabqKkdWVkFM3IMsgZkcsnevqnF1JqC6nOrVVKnKb6FuxRthY2ONoaxoDWgcgFq0klhGJbbeWe16eC7tZfja4xT0rh/a5RnJ39m3r59FX3t32K4Y+s/IstOsf1EuOfqrz++pXp7SaUlxfJLI7eTlznH6qhy5PvbNOuGCwtkiTh2au8zNbKF4B/G5rT7E5UmNncSWVEiS1G1g8OfzOastFwoQXVVHKxo+/jLfcblzqUKtLeccHWld0Ku0JJ/fccWkFcc5JGRj2c2lnt7209a90tIdwJ3uj8uo8PZWFpfSpvhm8r5FVfabGsuOmsS+ZYMb2yRtfG4Oa4ZDgcghXyaayjNNNPD5iXtdR/w+9UV1i3NfI3tMfiaRv9R+ip76HZVo1l1fn+C902r2tvO3l3PHsf8AI7q5KEEB5e9rGlznBrQMkk7gF42ktwk3shF2uvdPcWR0tJqeyN+p0nInBG734qh1C8hVShDp1NDptnOi3Un1XIWtKq8lvkmtjoRJfoSR/dsc/wCWPqp2mriuF4Jsr9Uni2fjhFjrSmXPLzpaSTgDivGOZVVxqZLjcJql2S6V/dHhwA9sLJVarrVHPv8AtGyoU1RpKHcPezliitcDZZWB1W4d95Hw5+6P63rQWdoqMcv1jOX17K4k0vV+9ybwFOIAEAjBG5MAUtp9mozFJW2+PQ9vekiaNzhzIHXwVRfWK4XUprfqvoXWn6jJSVKq9uj+omacqjyX2Ry2HubnNdbZnE6BrhJ6cx9fdXWl3LadF+4odWtsNVo+8nb/AGz+LW59KHiNxIc15GdJH9FWF1b9vScM4K60uP09VVMZJJSSMYJwgETai8urp3UlO8ilYcEg/wB4f2Wb1C+7WTpw9VeZotPs1Siqk/WfkQGlVuSzyGlMjJObGEMvYz96FwHyP0VhpUv8n3P/AEV2q72/vQ/rTGbOe45/h9Tp+LsnY88Fc62ezljuZ0o47SOe9FebOQtlvdEx/AP1b/AE/qFlrFKVxBP72NPfTcbebRZQ4LWmUMoAQGDwQFa36ibRXaohY3DNWtgHIHesne01RryiuRq7Kt2tCMnz+hqtExpLpSzg40ygHyO4/Ilc7ar2daEvH+D7uYdpRlHwLPBWwMiZQEVtPUS01oldCHa3kM1D7oPE/wBdVB1GrKlbuUfZ7CXY041K6UivtPgsjk0+Q0pkZDSmRk67TUCiuVPUOOGsd3v9J3H5FSbSsqNaM3yTOFzDtaMoLqWWtmZQw4AtIO8FAV1PDJZbyCBnsXhzPzN/83LIVIys7n2PK9n3saeE43Vv7fmWBR1EVXTsngdqjeMgrV0qsasFOHJmbnTlTk4yW6Ny6HwCAEAhbX4de34+7G0Hz4/VZbVZf5T9iNHpu1uvayHY062445Crov0kTm9i1G8N63SMcZQHl7A9pa4AtIwQeBXjSawz1Np5QpXjZp8bnS24amHeYc7x5dQs9eaTKLcqG67voXNtqKa4avx+ovOjcxxa9pa4cQRghUb9F4awy0Uk1lGNK8yehpTIHXZe5CppBTyu+3hGN/3m8itVpV4q1Ls5etHzX3zM/f2/Z1ONcmTitSAR93tUNzh0yd2RvwSAb2/uFEu7OFzHEufRki3uZ0JZjyFyKgvVnkcaQGSMneGd5rvMcVSRt7+zk+zWV8V8OZaSr2l0vT2fjs/id0dyvsw0MtzWvO7U5pAHuVKjeahPZUt+/wDLI8razju57e76E1bY6qOma2tlbLNvJLRgDwVrbRqxppVXmRArSpyn/bWEdEz2xROkeQGtGXE8guspKMXKXJHNJt4RXFdMausmqDn7R5IzyHL5LD163bVZVO9mpow7Omodxo0rlk6jfspc3Txuo6hxdJGMsceJb09FpdIvXVi6U3uuXs/go9RtlB9pHk/mMSuisBACA5qqhpqv/EQMk6Ejf7rhWtqNb/simdKdapT9R4FnaGyx0bG1FK0iHg8ZJ09D5LO6pp0aEVUpL0epb2V5Kq+Cb3IPSqTJY5NlPLLTTNmgeWPacghdaVadKanB4aPicIzi4y5DlaLzDXtDHkR1AG9hPxeS1tlqVK5XC9pd30+8lDcWk6Lyt4koDlWREM4QGMDogAkNGTuC85AVNobu2pBpaV+Ys9944O8B4LM6pqSqf2aT26vv8C5srRw/uTW/QgNKo8lnkxp9PNMjJMbOUVUa+KpZGWwszqe7cCMcB1VtpVvXdeNVLEV1IF9Wp9m4N7jotaUQIAQAgPEsbJY3MkaHNcMEHmvmcVOLjLkz2LcXlCNc6VlLXSwxuLmtO7PLIzhYW+oxt7iVOD2X5NFb1XUpKTOXSomTtkNPNMjJKUl7rqcBpeJWDlIMn3Vpb6xc0dm+JeP1IdSyoz3WxIx7Ttx9pSuB/K/P0VjD+oI49Om/cyK9NfSQSbTNx9lSuJ/M/CT/AKgjj0Kb97/Ijpr6yImvulXXAsleGx/gZuB8+qqbrUri42k8LuRNo2tKluuZwaVAyScm6jo5KyobDCO8eJ5AdSpFtQqXFRU4fg51asaUeKQ50tspKeJjWwRlzQO+5oLieq2lCyoUYqKituuNygqXFSbbbOzA6KWcTKAEAIAQAeCAR7j3q+oJ49o79V+fX8m7qo33s0NDCpRXgc+lRMnXIaV7kZDSmT3IaUyeZDSvMjIaUyMmynpzUTxwtIBe7GTyXa3pOvVjTXVnxUqKEXJ9Bxt1BDQw6YgS4/E48XLdWdlTtIcMOfV95RVq8q0syOtTDiCAEAIAQAgBAKF3hMdxmzwcdQ9VgtWpuneTXfv8S7tZ8VJGqGhqZiBHA8jqRgLjRsbms8Qg/hjzZ9yr04c2S1DYWgh1Y4O/I3h6lX1noEU+K5efBfUg1b5vambZtn6c5MUsjPA4IXap/T1B+pJrzPmN/NessnMdnX8qlvqz+aiP+nZ9Knl/J1WoLrEj62hko5dEm8H4XAbiqa9s6lnU4J8uj7yXRrxqrKObSoeTrkk9n6YyV3an4Yhn1PD6q70K37W57R8o/N8v9kO9qYp8PeNAW0KgEAIAQAgBACAEAIAQAgBACA1TwxzsLJmBzTyK416FOvDgqLKPqM5QeYsg7haWUzDLHK4t/C4fVZXUNFhQi6lOW3c/qWNG7c3wyRL2+mZS07Y2b8jJPUrR2FpC1oqEfa33sg1qjqTbZ1KacgQAgBAf/9k=;clipPath=inset(0% 0% 0% 4.4% round 5%);" parent="gmwJEtU2OgfRtAiCiP6d-1" vertex="1">
          <mxGeometry x="614.1528183716075" y="359.3959476892723" width="48.912294110665094" height="51.16348756345721" as="geometry" />
        </mxCell>
        <mxCell id="2nGjrXfHUsvwI4NKvP4E-22" value="redis" style="shape=image;verticalLabelPosition=bottom;labelBackgroundColor=default;verticalAlign=top;aspect=fixed;imageAspect=0;image=data:image/png,iVBORw0KGgoAAAANSUhEUgAAAIEAAACBCAMAAADQfiliAAAAulBMVEX///+6FBqTFht2GBu3AACQFhu9FBr16uq2FBqbMDKSERe6EBexFBqOAAC0AACiFRqsFBqcFRq4AAm5CBGnFRqRAAzixseQAAb24+T89/f68fHEREfovL2/NDa7GyC8ICWWISXx1dbRc3XZjI7bl5nUfoDHVVfhqKrFTE/jsbLsx8h/Fxu4JiquKi/IlpeqVlfOaWvKXmC+gYOeP0G2cXKjKi64am3cu7ytX2DVrq+FAAC9ioqoTE/QoqP3rLj+AAAJfUlEQVR4nO1b63aizBINCGhAUEATVEAQ8RbMbWLMZCbv/1qnu/ECdFVjMibfWmdZP2ZWZoDaVb2randDrq4udrGLXexi/xcW+9MkfZykydz3ft77wH+0FGqOQ/+03CT+Uf/edKQoUtEMRZr5w5/yv5o4iitVzXCsYPoTqzGck/ANzv8uEcqj/83+43QfvgGiMBzlOxMxnC/cffhGMEYy4Srh42rwHf69JLDcg1MliVOlyAb3+BNZjMXy3BgG/swqsc+dkX+cLyzHIOvhKJYymsyTY1JcS0nPWZ4kfMWpLLjEVjueSIoRTKYrUohxaVloIvzmWdwPVhMDKD5rR3rP9/I24LtVXhBWnqFPDacLqPhcxZqUL1y6PEqSCPcfy3M1cbnwDeLdGiWrcobnFgBAYn0q+3J5NucBH76hjBeJzxPdS0OsT5EqefpKecZpALXebL7y4Kd5aUvQKxfzz7Fy4D9ZgP/8YeHoiU7kFUcyLzEc6B6WiE+Vp5eEFvoo2o9dMpEty1rmlzfTdDqfz5f+Ko4nMBsOiThlepLB75QL23Bdx3FctzoJ3IDdsAqUg0nj4zWa1utKWvkORaotTzb4jeI9ipSNFk9Ps8UoMyrEtFbkjnmxCo8gNal311D1XquaCEMoI+LJuNzqrSDx4+aQUm8w9OJlOrYKIJzHq6sJyD5Ns+8ajYYqq3KnVc4DkxEwhuY8Kz6ewB0By+ZNs+NF1nJUVko7/225wUyVZVlV7Ta3GBZfnoM4HZfJrwTIeBtOj3kH+qAmddVG44iAmt2tXuWQ8Ip9aricVXuPM8LrNw5RxmtS567RqCKQeUJQGZGu9k9ccpNPMkJRJ/WRWtVadsF/AYEMEIKW5yz3klg8mZREAODq6gmCcFh+CAEF0WlXb3EUWpyxA7DZEk+0BCJg564hREBI2eEgzAjZfOhpNTmYgURo23dCBHwOiNwkdIvHQA4MQ8SDJQRaqvKwyoNKTeZ+KOFv5EwCJEiIt08fm4GsFasAAtWuNujcf7i+pgj68iYLuWe6IdK5vBQHwDBU+wHrSYAZ42yj7xDI8mY9ribCoCqP71ykcQv8MwwHQuQIOtVWwJ4ujdcbVT4ikNVonRl8wS5SP96ngsyFycgSJuAIwm7s5kKv2gbYk7VsE1G3BQQUBF2M6gSmOsCylP1fsGrZKYYSBkoIVe9qvH9DI+HvfJYRsERwiyGw3LHiGONg9phOuQrpceOAQguzzbFGqgiIkcUIgbRBnhUjC2ZEHvlxvmPg2hQQfr76cgXBbaVzCRLh0uVQlHHwlBJRVpascS1DDClbq+UuBSLIEwHmwX1Kpss4hqfmQiAtWUaMcvhCBDId6QCHDcHZwLymSFs9yA1DsDWh/yIjHahjsl9JYAzDMa6SJToyZC7+A4JhBCYB1FcUg/W4AhBM8BRorZ4NuidmPjMK/TL7yAWAtiET1Rotqw07xgG0O3D4JAGm+ZKTefj7wUTyQGcaP1RcJZiW6DhYwGtAw8f8y6b8elOI4RVLA8XKJ8JVsrRAiLkF+ReET+2+GERzOnN7Ono1SUSbJ4RyIEQz41sBmZG2ij/RboeFkwUv36ZqIsjQiCF7j3xH8cizoN0RuNeZaiV9Nclp4IeHB7TBot0bX56uMiKEWHEAurbgMaTVHPI4oxF4UoFFGr0ZXzte6tDNaIWGrZr1LF6r0LMgTqmSRIiewMv+kyMg07riK1eqwPlsF20htE+Bmo/5/0z4eQrXFIHNi0RWSAID+hQTZ4Jb7B4EuZfrgygA4+mK4qmKT03CWy8rPj5vGtFK8k6h6HQcA1eIy9PuttssF612uyeqfZ47ElXq2ToqKdVNNtb41SALK8gscaoTEzU+aOuea6WI3lVSaepmDWxdasqzxhj7uPhZ+PkzKzpRjTagSGwJWSkMH0i/VpSKvFIliQC2kTQR+Doj4QObdbZRWEeFq2ClCu3hSGl08NIA/JPig8IPopOUKklEyMOXSHmeCgBin1RV6gIExCJ+HFMTD/wdfnijRvpVxF8sVKpg8xX2XRnRluw2gVJtqog8gnQJa75oInaDH7gD47H5QvXBVoWzkPc9aEGRPoVcjNNHNx9ypea9vpvYVQipuekJF59Qd/VN8/6w72veP6BAsWdL3Y69G4a6TdYLWn3BcJOjt21J709coTaCxnGeY2LYfwlbaadV2AEO6KGuuNTgBo9bzTjRabtWwsnutKw5O7wnE2gjVp6n+j9NKxHBP2UZCApCsUYSQMXGuRdvFPQSs60ppFR7ArGlHqU2YvAufR9CVVq5I/q6mHtbKxZ80Gb2tDsBeekyrZzx2ki8kMgJpVgqAnsNekuuDzaINhJJPz6cOgYBkMNsr1RhXSJh4yR/pt1jOpV2olar3cPVogqGT4+1ikqVHaDxPG+JNoBUp9rM8h8wg9aMnirSYV3UB3q0CQCxLNwE1xssFgyiVXKxUNWJUQYxQljfYvc2MN6NXfggAoIBVsunaCPOoLKtHqpCKk0FDvrrtREQPsa+0mNgnUgP+qHyxM4EIf9Q8RmlM20RAhndNojKs3AzGL5WDf+IAFGq9JAdKI26PRx4SgCGf0QQY+d40XotcauhfeFkQQrXUQRrsP4D1WnP76hIJImA3m3D/R/W1oR9G8Q9lYr5meb2Gj3WZXu4k8pThQ5JDA3YJ+1NN823vVAb/H4wUbUcEVZC07Pb0emcpEY6L7ZLR1mjm/pz4VD3ahC/qLhix179tNrtbrfb3h2lVLMfrjfAPi23vvnrg3tN0PyI3vsoCHh6omYYYPHtw39/28KfV8QvMpoIrDxB/2Ok+Kj7vnl9D78nyrdP94KXDeomCOtfBmrsjAgJhKz+w7bmo6TB9u0WZwR41lQKPywfkpSsT9h30odZ3h9ZVJ5rFENefGj45t+Pk79oJokQbGbp6SP0zUJx8PPhm6eFX0jE8zXOSvq9QDkTZPBnkWCb/PfjC1+MNn9fo6+faJ/KcuJprBUFouIzH26++unuzQveK2X5etNZM7Px7LPi+6dPqIekPAUgakw3+1jv+YQNtq/61zCQ8P+c6aNl749gemJmmr9+n+d7ZWaD7V+8PAGjr1PP/isVJBHvpyVCvyXhf8u3882Pv33s4K8YfvR6832/zSEuT5mx79+Kr96GH6Q88dUvH9F9l8GJ0Pvv3x7+0aiMuK2EXz/4z2tseprmbb/fvyV/v99+dvKdxeLt/fPL68vL88f2P/idrotd7GIXu9i32P8AfOzwaX0N+p0AAAAASUVORK5CYII=;clipPath=inset(5.81% 0% 7.36% 0% round 5%);" parent="gmwJEtU2OgfRtAiCiP6d-1" vertex="1">
          <mxGeometry x="745.8872651356994" y="360.8408165330231" width="58.37382206491559" height="50.68114783930657" as="geometry" />
        </mxCell>
        <mxCell id="2nGjrXfHUsvwI4NKvP4E-23" value="" style="shape=image;verticalLabelPosition=bottom;labelBackgroundColor=default;verticalAlign=top;aspect=fixed;imageAspect=0;image=data:image/png,iVBORw0KGgoAAAANSUhEUgAAASMAAACtCAMAAADMM+kDAAAAxlBMVEX///8AljkAjiL//P7P3tMAljokkz0AkSfq8+33+/lBnkihx6MAigh8tIAmlTHU5tkIkjJ8uolFo1Lh7uUfkywAjRvO4tNgrXFvrnW21byv07jw9/JOo1M0lzzB2sY5mEG0tLTb29umpqbx8fGrq6vm5uajxKjb5t5eo2YAiwCzy7VYoF0Aih+cnJzNzc2Uu5ZImlJ8r4Gpx626z7uFtIxBmU93tX+fy6o6oVFSpV1zsHiWxp7M49E3nUNZrGtos3uRkZHAwMDwiMDpAAAG3klEQVR4nO2de3+aOhyHuZhGrRdaSetqK1rmZdp5a+02z7qt7/9NnQSLAgYFESnJ7/mvZwckz4d8yQUSRQEAAAAAAAAAAAAAAAA+C632dNovZH0Vnxm9X9YwxtoQLIVRuCcIqaqKDNK0s76YT8lgWGGCHJBRmYKlIMWpZmwUMUvYWuhZX9TnYmFpXkMOBGLJQ2FGdgxRDLKCCrdm0CQcQetYIhBLCgsi0+DdRG4sLUfSx9LI4lazrSS1MhxkfZGZEhJEAUuk2sv6QjNjsCLqQUVOLGl9OWPJ7hs4iqF1LM2eJYylQ0EUrHDyxRILohiKHEtkXsz6ss/IYK7ted6HWjLMRSnrSz8T+qIWOYgClsisnfXVn4XnWEEURIZYKoyjPe9DbyVDexE7loov+zoeES3h2kjcWNIX5pFBFLBUGYs6apIsiHySkJixNBhqiYIoYMkwp6LFkj01EgdRwBJ+eM66VKeEBtHuUGxyS98EiqX2UovZ8YgoSSVNMWJp0Dym4xHRklETYDCXBtFJnvehlrCV81jSR6dpEe21lO9YKsxO+bwPlaTial7bAcU5Ti2IApZwLZeDufpUS72aeSwRK3ejJvro2DGioy3lrRM3GJ8jiAKSDHOeo/GAwsOZgihgCQ9zk0q2mYEgB1zNuuxRmZ45irYgcpN14aNhW1kpojfSPOvSR2OQzm2E/PD/J2OZdemjUUhhHITmMXvj1kPIO0sX+ZjyTsMRwq9FP23+rSSzo1oj+DOvGBwdcnQloKOPuhH4N8T/C3mO2Dj6saq6NMR0hK1yXGqGz9GrZnygCekIaXel2NR/+hxduY0KZArpCL8ec6q6+3nEhyPXmJCOEL485lRFDI4OIaOjRj06bCxIRkerSmSe2DC+jI6qBopKTV5HvHLx4DtyBYIjniNm5bWircEVcLTjCOFxS1FaWxRwFHCEyGtr52fAkdcRIj84P/OLe5ycjhAu19mxl00vqzf+iLCMjtx6Vvyz6fSvCZnjlNERMv9jB/6+jjirKaEjUnMmzC4rUY+Tz1Hjl9Nru6VnRP6qFnZbyeeoxBTVyyyezT+3Pt74p5LPEeOOOMffBX6l+JN7nIyOSitnKFKGeZFjHdWtdfA4jlrbGcgSOHIdtTTD/ZP1Yh8sF+jTqp42pNeROzZyAWMjXkebITcYYwtz9HbvcF2egaMQR8p2PlIBRyGOfIAjrqPNXQT3UZijYvn+gzHkUZgjeK5FcLT5k1lxh9lUId+tOXr8yOvox7brD442jpQbw9Nf8wOO3Gd/q0mg33/AEa1hTBIydt49rsG8yHockh3022LjkMaDn5DvduRz1Lhllhp/2BmDL5aAo4/nWuVtPf/4LepxEjrCas2Zx25bwTeXwJGnDUmqTn37Rfzf1IScSUZHbL7/3nnu3/nhfy4iqSNKJThxxPjLPZe0jpB2Be8fHXBEJQ2ppHp7Qwsc8d+H/Ou+l0wI9Gk5jmR6rxbez3aA9/wPs8dR/SY6sn4vEhdwdBipHB25WopU30HSVuCX+IsTNa7dtoIMz36KWb6OS/C77Irb5xeyDcmKyfuP+wl83/972+sXsS+SFBnmRRI7MncWf7oVbWwkMcbPL36uhPum5gQQPyELUeXEUcPMbq0xY5x16aNRmmW4Hts069JHZBG2d2HqoFpu1hxfZrKEJlX0rZ910SNjj9OJ7QOGVJKXmsaw+8n3o4kNLudsRfZiM9m+RnFBxlMOl9AujCup7AbBN0Tm+TOksDW0rfMsXIvUHO9mH9woPCVD+CLXG2r2hmm3lRDO/37RhfGpdsviGjK0fAaRn9IitViiQZSzRfxDKb6k0w5A+EKgDcdZLJ3aEsJPuQ8iP4UTd0+QgcXb0rfUP+GOIzSIZjlZuT8e9kvlRBUOYXOxG0S2EDWvmHBzWteQNt2dz+w+djqP7xkU6tToz7OkFY42q3mb9006tm2XJp2zFykF7H6i7gkNomWb87y3vyqPXzuPymRy/iKlgD0/vsLxg4gy6SrfbeWxS12JwWB8XCcOYRzWInrvKSyPFEUUR4o+WsaPJRpE4Zsbs/uo2/tuC3MfKSyWSMxYQtq+zTF7HeUfvZV6XRGebBtoLMWwRIOov7dr9v5Oa2Gp+3iuyz8T0Teyox2Pl0Mdj8nXyaTTEaIZ6UWPNmqCVBJlBMTudnvpX/P5saeHKxwied+lNym91f42JdtWVZwxomMpjHFoLLERkNzM4KeJvggbNUFkJshQbHL4sURbRKOsr+wzsbuBfV73d04R/WaGvXuJqVoVgmgHvb/dYBuRJQQRFxpL668dyAMEUSiDuaVh04Ig2kuxUBiAIQAAAAAAAAAAAAAAgE/D/4bzyn9JBnC3AAAAAElFTkSuQmCC;clipPath=inset(7.23% 26.29% 3.76% 24.57%);" parent="gmwJEtU2OgfRtAiCiP6d-1" vertex="1">
          <mxGeometry x="527.8847599164927" y="99.75665899375203" width="66.67457956254658" height="71.79980113984617" as="geometry" />
        </mxCell>
        <mxCell id="2nGjrXfHUsvwI4NKvP4E-24" value="fluentd" style="shape=image;verticalLabelPosition=bottom;labelBackgroundColor=default;verticalAlign=top;aspect=fixed;imageAspect=0;image=data:image/jpeg,/9j/4AAQSkZJRgABAQAAAQABAAD/2wCEAAkGBxMQDxUSEhMTFhUQDRAVFRcTEBUYFxUVFRUWFhURFxcdKCggGBolGxMVITEhJSkrLi4xFx8zODMsNygtLjcBCgoKDg0OGhAQGy0lHyUtLSstMC8rLSsrLy0tLSstLS4tLS0tLjUtLS8tLy0tLS0tKy0rLS0tLS0vLS0tLS01Lf/AABEIAMwA9wMBIgACEQEDEQH/xAAcAAEAAQUBAQAAAAAAAAAAAAAAAgMEBQYHAQj/xABBEAACAQIBCAcEBwcEAwAAAAAAAQIDEQQFBhIhMUFRYQcTIjJxgZFScqHRI0JikqKxwRQzQ2OCstLC4fDxFlNk/8QAGQEBAAMBAQAAAAAAAAAAAAAAAAEDBAUC/8QALhEBAAICAQMDAgUDBQAAAAAAAAECAxEEEiExE0FRMmEFIkKR8BRx4VKBobHR/9oADAMBAAIRAxEAPwDseVMoqjHjKWxfq+RquLxtSo+3JvlsXoVcp13Uqyl9ppeC1L/nMs5HRw4orG/dys+ab2mI8KbLmhlOtT7s5eEndejLZkJF0xE+VEWmPEtlwWcyeqrG32o615raviZ6jWjOOlFqSe9O5zllXC4ydGWlTk09/B+K3me/Fifp7NePl2jtbu6IDCZKzihVtGp2J/hl4Pc+T+JmzFak1nUt9L1vG6gAPL0AAAAAAAAAAAAAAAAAAAAAAAAAAAAAND3eRCRXxMNGco+zOS9G0UJHWhw5jUqbISJshI9IQZCRNkJEiDMxkfOGdG0Z3nD8UfB71yZh2QZFqRaNS9Uvak7q6ZhMVCrBThJST4fk1uZWOaYDKFShPSpu3FPZJcGjeMjZap4lWXZmlrg3r8VxRz83HmnePDp4eRXJ2ntLJgAztAAAAAAAAAAAAAAAAAAAAAAAAAAANUy/R0a7e6aUv0f5fExcjaM5MPpUlNbab/C9T+NjV5HRwW6qQ5PIp05J/dTZCRNkJF6hBkJE2QkSIMgybIMlCDPIzcWpRbTTumnZp8Uz1kGSNxyFnQp2p12lLYp7Iy5S9l89ngbOckZm8h5yzw9oVLzp/ih7vFcvTgY83F96fs3YeV+m/wC7oAKOExUK0FOnJSjLY18U+D5MrGDw6ETsAAAAAAAAAAAAAAAAAAAAAAABGpBSi4vZJNPwZo+LoOnOUHti7eK3PzVjejBZzYO8VVW2OqXu7n5P8zRx79NtfLLysfVXcezWWQkTZCR0HMQZCRNkJEiDIMmyDJQgyDJsgz0IMiyTIsCtk/KNXDT06MrN20oS7k1wktz4SWtG+5v5yUsYrLsVYrtUpPtLi17Uea+BzllvXottSi3GcHeMk2mn4rYVZcFcn912LkWx/eHaAc7zfz+cGqWMTdtXWxWte/FbfFem837CYqFWCnTlGcZbHF3RzcmG2OfzOnjzUyR+VWABUtAAAAAAGIyxnNhMJ++rwi/ZT0p/dV2aTlXpaitWGw8pfarSUV4qEbt+qLK4r28Q8zaIdNBwfH9IeUKv8ZU091KnFfF3fxMNVy9i597FYh+OIqfMvjiW95efUh9Ig+bqOX8XDu4rELwr1PmbLkTpMxlGSVbRrw36SUZpcVJavVPyItxLR4kjJDtgMdkHLdHG0FWoyunqaeqUJb4SW5r04XMiZpiYnUrAAEARnFNNNXTTTXJkgBo+VMG6NRx3bYvjF7Pl5FjI3bLWT+up6u/HXH9Y+fyNKl+T133NbUzpYcnXX7uTyMXp2+ymyEibISL1CDIMmyDJQgyDJsgz0IMiyTIsCDIMmyDJFrjMNprVtWz5FngMo1sNPSpVJU5X12ep+9HZLzRlGWeOw2krravj/uT2ntKPE7hs2TukipFWr0Yz+1Tlov7run6ozuH6Q8HJdpVYe9Tv/a2coPCm3ExT7aaK8rJHvt2L/wA6wNv3z8OqqfItMR0iYOK7KrT92ml/c0coKVaqoq79OJ5/oscfKz+ryT2jToOUOk6Vn1VCMdXeqzv+FW/M0zLOeuMxF0601HhDsLwtHW143NfrVnJ6/QpnqMWOv0wtibz9UjPD0Ht628K+Awkq9WFKHeq1IwjfZeTsm+Wsolxk/GSoVqdaHepVYTjfZeLvZ8nsIneuxt1OXRNR6myr1et0e81HQ0vctfR87nKMXhpUqk6c1aVOpKElwlFtP4o65LpXw3U6SpVut0e41HR0vfv3edr8jkuMxMqtSdWeuVWpKcre1Jtv4sowep361l5r7M/0f5wPBY2Lk7UqzVOqtyT7tT+lvbwcjvh8vHW+j3PunKnDC4qejUglGnUk+zUiu7GUt0ktWvbq3lfKxTP5oTjv7S6MADAvAAANXzqybo3xEFq/ipbv5q8N/LXuZtB41fU957x3mltwry44yV6Zc3uQkXWcOTngql4puhUfZ/ly2uHhvX+xaKaaundM6tZi0dUeHGtE1tNZ8wiyDJsgz0hBkGTZBnoQZFkmRYEGQZNkGSIsiyTIskY3H4e3aWx7fHiWRnJK+p7zCY/6J69/d5nqJIjc9lGvWUFz3IxlSbk7s9nJyd2RPEztsx0isPAeghZt4D0A28B6AbeA2fNjMjE45KaXVUnsqVE+0uMI7Z+OpczpeRujvBYdJyg60/ara15QXZt4pvmUZM9Kdvd7rS1nEKFGU3aEZSfCMXJ+iL6Gb+LlswmKaf8A8tW35H0XQoRgtGEYxS2KMUl6IqGeeZ8Qs9H7uTZj5TylhJqlVwuKqUGnZSozvTaTa0JSWzdot24cx1kGe+SLTvpWRWYjWwAFT2AAC3x+DhXpypzV4zVny4NcGtpyvKGFqYKtKnLXbWnbVOL2S/5wOuGEzqyKsXR7KXWU7uD48YPk7LzSNXGzdFtT4lj5nH9SvVX6o/mmiUMXGfJ8H+nEqMwUlZ2epp79qfAr0sdKO3Wue31OpNPhx65flk2QZSp4yMt9nz+ZVZ50uiYnwgyLJMiwIMgybIMkRZFkmQnJJXexIkUq9VQV3/3yMDjr1Lt7d3yLjFYhzlfctiKJ60mJ13YoFfE07S8dZRPGmyLbjbwHtiM6iW1oJ29BbTxi3K/iW1Su5bWQnUrypiEtS1vguPA6pmF0d20cTj4py1Onh2tUd6lV9qX2di33eyXRdmCqKjjMVH6Vq9GnJfuluqSX/se72fHZ04wcjkfpq0Y8XvIkADEvAAAAAAAAAAAAAHO8/skdVVVeC7NZ2lbdU23/AKkm/FPiaizsuWcAsRh50n9aOp8JLXF+qRxypFptNWabTXBrU0dfh5eump8w4fOw9GTqjxP/AGps9jUcdja8zxkWa2OFxHHSW2z8iosoLfF+TLJkWR0wsi0sh+2w5+geLhx+DMayLHTD11SyTxUPa+DMVj8cpuyfZXxfEtcVWvqXn8i2Glta78q/WIdaigA99MI42r2G0u7r2+piZY2W5JGXkrq3FWMBJWbXBtHiy/FEa0nKvJ7WymAeFwdP6JcyuulHHYiP0cJXoQku/JP9817Kezi1fcr6z0fZqSylirSTVCjaVaS1X9mkn7Uvgk+R9EUaUYRUIJRjCKjGKVkopWUUtySMnJzdMdMeVuOm+8pgA57QAAAAAAAAAAAAAAAAHKc9MJ1WNqW2VLVF/V3vxKR1Y570l07VqUvaoyX3ZX/1GvhW1k18sP4hXeLfxP8AhprIskyLOu4kPGRZJkWS9oss8VX+qvP5EsViLalt3vgWJC6lPeQABeAAAYXGxtUl439VczRiMpL6TyR4v4W4vK1LvJeTqmKrwoUY6U6s1GK3c5N7kldt8EWjZ3ToozP/AGOj+01o2r4iCsmtdKk9ahylLU34JbmZ8uSMddtNa9UtqzWyDTyfhYYenr0Vect85vvTfjw3JJbjLAHJmZmdy1xGgAEAAAAAAAAAAAAAAAAAc+6S6l61KPs0ZP70rf6ToJynPXF9bjaltlO1Nf0978Tl6GvhV3l38MP4hbWHXzP+WBZFkmRkzruJDxllisTuj5v5DE4m+pbOPEs2GilPeUWeHrPAvAAEgAAGIyi/pHyS/Iy5XzNzWnlTFtK8aMJp1p8I7qcftyS8tvJ15LRWNyuxRuWc6Jszv2qqsZWj9DRn9HFrVVqx384xfq9W5ncCjg8LCjTjSpxUYU4qMYxVkktiKxxsuScltujWvTAACp6AAAAAAAAAAAAAAAAACNSooxcpNJRTbbdkktrYFjl3KSw2HnVe1K0Vxm+6v18Ezj9STbbbu222+LetszmdmXf2uraN1Sp30Fs0nvqNc93BeLNar4hLUtb+B2OLh9Ou58y4PMz+tfVfEJ1ZqKuywr13Lw4HlSTbuymzUqpXSDIMmyDC6EWeHrPA9gACQAzma+bNbH1LQWjTi+3Ua1R+yvaly9bHm1orG5eqxMzqFnkPIFbH1VRpak7dZUa7NOG+T4t7Et75JtdzyDkalgsPGhRjaMFt3yk9s5PfJnuRckUsHRVKjGyWtv60pb5Se9l+cfkZ5yz28OjhxdEfcABnXAAAAAAAAAAAAAAAAALTHZSo0FerUhDk5K78FtfkallfP+CvHDw0n7c1ZeKjtfnYtphvf6YU5eRjx/VP/rcMdjqdCDnVkoxXHa+SW1vkjmudWdcsS9CN40k+79afBz+X5mByllWriJaVSbk/y5JbEvAsGdHBxa4+895cnkcy2X8sdo/5lKtXb5It2TZBmtnhBkWSZFh7hBkGTZBkrIRZ4es8D2Az+QM0MVjLOMNCm/4lRNRtxits/LVzOn5t5l4fBWnbrKq/iTS1e5HZH4vmZ8vJpj+8r8eC1/7NKzT6Pqle1XFKVOnqahsqT8fYXx8Np1TB4WFGnGnTioQgrKMVZIrA5WXNbJPdvx4q0jsAAqWAAAAAAAAAAAAAAAAMJlWWPV+oWHkvtaan8Xomm5XxeU9fWKtFfy4Wj96H6s6aC/Hn6P0xLLm43qfrmP8Afs4TUndu7u767vXfmU2dzxGEp1NVSEJ6rdqCflrMZXzUwc9tCCv7F4+mjY1xzq+8MM/hl48Wj+fu44yLOq1swcJLZ1sfdqX/ALkzC4vMuhGTSnW+9D/Etry8cq54OWvw0FkGbZjM2qUHZSqebj8hhM16U9s6uzc4f4lnr01tEce+9NQZFnR8n5iYepK0p1/KcP8AEzOH6P8ABR2wnPX9erL0tGyK7czHHyurw8k/DjkmXOByXWxD+hpVKl98INrzlsXmzuGDzcwlHXDD0k+PVpv1d2ZRIptz/wDTDRXhT7y5Hkvo1xNSzrThRjq1d+fotS9TeMiZkYTC2kodZNfXq2k0+Ue6vS/M2QGXJycl/MtNMFK+IAAULgAAAAAAAAAAAAAAAAAAAAB//9k=;rounded=0;glass=0;sketch=0;clipPath=inset(0% 0% 0% 0% round 5%);" parent="gmwJEtU2OgfRtAiCiP6d-1" vertex="1">
          <mxGeometry x="547.1398747390397" y="360.8408165330231" width="60.5103039524915" height="49.976121483029424" as="geometry" />
        </mxCell>
      </root>
    </mxGraphModel>
  </diagram>
</mxfile>
